@startuml UML

class Author{
    - name : string <<Not Null>>
}

class Post{
    - id : int <<Not Null>>
    - title : string <<Not Null>>
    - body : string <<Not Null>>
    - creation_date : datetime <<Not Null>>
    - url : string <<Not Null>>
    - post_score : int <<Not Null>>
    - num_comments : int <<Not Null>>
    - upvote_ratio : float <<Not Null>>
}

class SubReddit{
    - name : string <<Not Null>>
}

Author "0,1" -- "1,*" Post
Post "*" --* "1" SubReddit

@enduml
